<svg xmlns="http://www.w3.org/2000/svg" viewBox="0 0 512 512"><polygon points="146,81.5 162.8,127.4 211.6,129.2 173.1,159.3 186.6,206.3 146,179 105.4,206.3 118.9,159.3 80.4,129.2 129.2,127.4" fill="#f4b400" stroke="#e09b00" stroke-width="6" stroke-linejoin="round"/><polygon points="256,191.5 272.8,237.4 321.6,239.2 283.1,269.3 296.6,316.3 256,289 215.4,316.3 228.9,269.3 190.4,239.2 239.2,237.4" fill="#f4b400" stroke="#e09b00" stroke-width="6" stroke-linejoin="round"/><polygon points="366,301.5 382.8,347.4 431.6,349.2 393.1,379.3 406.6,426.3 366,399 325.4,426.3 338.9,379.3 300.4,349.2 349.2,347.4" fill="#f4b400" stroke="#e09b00" stroke-width="6" stroke-linejoin="round"/></svg>
